<svg width="151" height="151" viewBox="0 0 151 151" fill="none" xmlns="http://www.w3.org/2000/svg">
<path d="M129.417 31.6097L129.417 31.61C130.573 32.7656 131.215 34.3329 131.215 35.951V36.8404H95.2846V0.909639H96.174C97.8236 0.909639 99.3903 1.55345 100.544 2.70766L129.417 31.6097ZM25.9531 0.909639H84.0279V40.1094C84.0279 44.5047 87.6203 48.0971 92.0156 48.0971H131.215V143.922C131.215 147.342 128.467 150.09 125.047 150.09H25.9531C22.533 150.09 19.7846 147.342 19.7846 143.922V7.07812C19.7846 3.65804 22.533 0.909639 25.9531 0.909639Z" stroke="black" stroke-width="1.81928"/>
<path d="M68.9844 77.7429C69.338 77.1303 69.338 76.3757 68.9844 75.7631L62.7258 64.9225C62.3721 64.3099 61.7185 63.9326 61.0112 63.9326L48.494 63.9326C47.7866 63.9326 47.133 64.3099 46.7794 64.9225L40.5208 75.7631C40.1671 76.3757 40.1671 77.1303 40.5207 77.7429L46.7794 88.5835C47.133 89.1961 47.7866 89.5734 48.494 89.5734L61.0112 89.5734C61.7185 89.5734 62.3721 89.1961 62.7258 88.5835L68.9844 77.7429Z" stroke="black" stroke-width="1.82"/>
<path d="M61.3899 76.3372C61.5386 76.5946 61.5386 76.9118 61.3899 77.1693L58.4322 82.2922C58.2836 82.5497 58.0089 82.7083 57.7116 82.7083L51.7961 82.7083C51.4988 82.7083 51.2241 82.5497 51.0755 82.2922L48.1178 77.1693C47.9691 76.9118 47.9691 76.5946 48.1178 76.3372L51.0755 71.2142C51.2241 70.9568 51.4988 70.7982 51.7961 70.7982L57.7116 70.7982C58.0089 70.7982 58.2836 70.9568 58.4322 71.2142L61.3899 76.3372Z" fill="black"/>
<path d="M109.588 77.7429C109.942 77.1303 109.942 76.3757 109.588 75.7631L103.329 64.9225C102.976 64.3099 102.322 63.9326 101.615 63.9326L89.0975 63.9326C88.3902 63.9326 87.7366 64.3099 87.3829 64.9225L81.1243 75.7631C80.7706 76.3757 80.7706 77.1303 81.1243 77.7429L87.3829 88.5835C87.7366 89.1961 88.3902 89.5734 89.0975 89.5734L101.615 89.5734C102.322 89.5734 102.976 89.1961 103.329 88.5835L109.588 77.7429Z" stroke="black" stroke-width="1.82"/>
<path d="M101.993 76.3372C102.142 76.5946 102.142 76.9118 101.993 77.1693L99.0357 82.2922C98.8871 82.5497 98.6124 82.7083 98.3151 82.7083L92.3996 82.7083C92.1024 82.7083 91.8277 82.5497 91.679 82.2922L88.7213 77.1693C88.5727 76.9118 88.5727 76.5946 88.7213 76.3372L91.679 71.2142C91.8277 70.9568 92.1024 70.7982 92.3996 70.7982L98.3151 70.7982C98.6124 70.7982 98.8871 70.9568 99.0357 71.2142L101.993 76.3372Z" fill="black"/>
<path d="M59.3359 119.223C65.7841 106.378 83.9195 106.378 90.7707 119.223" stroke="black" stroke-width="1.82" stroke-linecap="round"/>
</svg>
