<svg width="905" height="911" viewBox="0 0 905 911" fill="none" xmlns="http://www.w3.org/2000/svg">
<path opacity="0.05" d="M511.559 480.007L750.225 543.957L659.563 882.312L420.897 818.361L420.882 818.357L420.867 818.353L28.8954 713.886L68.4932 566.105C97.8189 456.66 130.264 369.934 165.523 305.29C200.739 240.725 244.237 186.293 295.954 141.748L296.056 141.66L296.157 141.571C335.372 106.982 384.099 78.5205 442.797 56.48L442.818 56.4722L442.838 56.4643C498.178 35.561 557.84 24.3955 621.993 23.134L622.131 23.1313L622.268 23.1269C686.821 21.0768 750.099 28.3686 812.174 45.0017C831.576 50.2002 853.392 57.9236 877.678 68.2957L799.47 360.17C727.956 343.005 667.707 338.802 620.104 349.814L620.027 349.831L619.951 349.85C565.094 362.939 523.877 396.083 497.224 447.507L484.182 472.671L511.559 480.007Z" stroke="#CC8D06" stroke-width="45.5784"/>
</svg>
