<svg width="145" height="171" viewBox="0 0 145 171" fill="none" xmlns="http://www.w3.org/2000/svg">
<line x1="53.5035" y1="20.8516" x2="53.5035" y2="36.6798" stroke="#8C2424" stroke-width="2.37423"/>
<circle cx="53.8354" cy="11.5536" r="11.2787" fill="url(#paint0_linear_7959_142299)"/>
<line x1="90.9645" y1="20.8516" x2="90.9645" y2="36.6798" stroke="#8C2424" stroke-width="2.37423"/>
<circle cx="91.4291" cy="11.5536" r="11.2787" fill="url(#paint1_linear_7959_142299)"/>
<path d="M143.221 95.9379C144.103 97.4658 144.103 99.3483 143.221 100.876L110.063 158.308C109.181 159.836 107.55 160.777 105.786 160.777L39.47 160.777C37.7057 160.777 36.0755 159.836 35.1933 158.308L2.03526 100.876C1.15312 99.3483 1.15312 97.4658 2.03526 95.9379L35.1933 38.5065C36.0755 36.9785 37.7057 36.0373 39.47 36.0373L105.786 36.0373C107.55 36.0373 109.181 36.9785 110.063 38.5065L143.221 95.9379Z" fill="url(#paint2_linear_7959_142299)"/>
<path d="M64.3839 78.0547C64.5875 78.4073 64.5875 78.8417 64.3839 79.1943L56.7321 92.4477C56.5285 92.8003 56.1523 93.0175 55.7451 93.0175L40.4414 93.0175C40.0343 93.0175 39.658 92.8003 39.4545 92.4477L31.8026 79.1943C31.599 78.8417 31.599 78.4073 31.8026 78.0547L39.4545 64.8013C39.658 64.4487 40.0343 64.2315 40.4414 64.2315L55.7451 64.2315C56.1523 64.2315 56.5285 64.4487 56.7321 64.8013L64.3839 78.0547Z" fill="#FDFFFC"/>
<path d="M56.1465 78.1816C56.3048 78.4558 56.3048 78.7937 56.1465 79.0679L52.5033 85.3781C52.345 85.6523 52.0524 85.8213 51.7357 85.8213L44.4494 85.8213C44.1327 85.8213 43.8401 85.6523 43.6817 85.3781L40.0386 79.0679C39.8802 78.7937 39.8802 78.4558 40.0386 78.1816L43.6817 71.8714C43.8401 71.5972 44.1327 71.4282 44.4494 71.4282L51.7357 71.4282C52.0524 71.4282 52.345 71.5972 52.5033 71.8714L56.1465 78.1816Z" fill="#333333"/>
<path d="M113.452 78.0547C113.656 78.4073 113.656 78.8417 113.452 79.1943L105.8 92.4477C105.597 92.8003 105.221 93.0175 104.813 93.0175L89.5098 93.0175C89.1026 93.0175 88.7264 92.8003 88.5228 92.4477L80.871 79.1943C80.6674 78.8417 80.6674 78.4073 80.871 78.0547L88.5228 64.8013C88.7264 64.4487 89.1026 64.2315 89.5098 64.2315L104.813 64.2315C105.221 64.2315 105.597 64.4487 105.8 64.8013L113.452 78.0547Z" fill="#FDFFFC"/>
<path d="M105.215 78.1816C105.373 78.4558 105.373 78.7937 105.215 79.0679L101.572 85.3781C101.413 85.6523 101.121 85.8213 100.804 85.8213L93.5177 85.8213C93.2011 85.8213 92.9084 85.6523 92.7501 85.3781L89.1069 79.0679C88.9486 78.7937 88.9486 78.4558 89.1069 78.1816L92.7501 71.8714C92.9084 71.5972 93.2011 71.4282 93.5177 71.4282L100.804 71.4282C101.121 71.4282 101.413 71.5972 101.572 71.8714L105.215 78.1816Z" fill="#333333"/>
<path d="M53.6348 118.307C61.4272 133.829 83.3434 133.829 91.6229 118.307" stroke="#8C2424" stroke-width="4.50381" stroke-linecap="round"/>
<defs>
<linearGradient id="paint0_linear_7959_142299" x1="62.7353" y1="23.2258" x2="44.1371" y2="-0.912216" gradientUnits="userSpaceOnUse">
<stop stop-color="#ED1212"/>
<stop offset="0.421875" stop-color="#F45151"/>
<stop offset="0.71875" stop-color="#F15F5F"/>
<stop offset="1" stop-color="#FF6969"/>
</linearGradient>
<linearGradient id="paint1_linear_7959_142299" x1="100.329" y1="23.2258" x2="81.7309" y2="-0.912216" gradientUnits="userSpaceOnUse">
<stop stop-color="#ED1212"/>
<stop offset="0.421875" stop-color="#F45151"/>
<stop offset="0.71875" stop-color="#F15F5F"/>
<stop offset="1" stop-color="#FF6969"/>
</linearGradient>
<linearGradient id="paint2_linear_7959_142299" x1="126.048" y1="183.484" x2="32.2661" y2="26.3887" gradientUnits="userSpaceOnUse">
<stop stop-color="#ED1212"/>
<stop offset="0.421875" stop-color="#F45151"/>
<stop offset="0.71875" stop-color="#F15F5F"/>
<stop offset="1" stop-color="#FF6969"/>
</linearGradient>
</defs>
</svg>
