<svg width="156" height="20" viewBox="0 0 156 20" fill="none" xmlns="http://www.w3.org/2000/svg">
<g clip-path="url(#clip0_6031:491)">
<path fill-rule="evenodd" clip-rule="evenodd" d="M48.3746 7.12487H46.4771V14.054H44.8555V7.12487H43.1143V5.78369H44.8555V4.7568C44.8555 2.81801 45.7026 1.35445 47.9079 1.35445C48.2508 1.34669 48.5931 1.38745 48.9244 1.47548L48.7372 2.88787C48.4742 2.80902 48.201 2.7687 47.9263 2.76818C46.701 2.76818 46.4771 3.74305 46.4771 4.75663V5.78352H48.3746V7.12487Z" fill="#F6B220"/>
<path fill-rule="evenodd" clip-rule="evenodd" d="M42.5332 7.12682H44.8572V5.97217H42.5332V7.12682Z" fill="#F6B220"/>
<path fill-rule="evenodd" clip-rule="evenodd" d="M5.01365 5.39441C6.11374 5.39441 7.07405 5.89119 7.58064 7.08103C7.84416 6.567 8.24729 6.13656 8.74437 5.83847C9.24144 5.54038 9.8126 5.38656 10.3931 5.39441C12.522 5.39441 13.4823 6.94316 13.4823 8.82135V14.0537H11.8414V9.37519C11.8414 8.00826 11.4373 6.79788 10.0079 6.79788C8.50673 6.79788 7.91323 8.184 7.91323 9.49859V14.0537H6.26978V9.03985C6.26978 7.72191 5.83147 6.79788 4.52637 6.79788C3.32056 6.79788 2.40989 7.90069 2.40989 9.56996V14.0537H0.771694V7.43707C0.771694 6.99097 0.749838 6.17771 0.700195 5.62386H2.25401C2.2879 6.0528 2.32179 6.65714 2.32179 7.00999H2.37465C2.61363 6.51872 2.98897 6.10557 3.45645 5.81924C3.92393 5.53291 4.46404 5.38534 5.01314 5.39391" fill="#60D0E4"/>
<path fill-rule="evenodd" clip-rule="evenodd" d="M16.3877 14.0546H18.1308V5.97217H16.3877V14.0546Z" fill="#A3D65B"/>
<path fill-rule="evenodd" clip-rule="evenodd" d="M22.0284 5.62449C22.0623 6.05342 22.1009 6.65777 22.1009 7.01061H22.1518C22.5584 6.10157 23.6724 5.39453 24.8751 5.39453C27.035 5.39453 28.0079 6.94328 28.0079 8.82146V14.0544H26.3417V9.37598C26.3417 8.00888 25.9702 6.7985 24.4306 6.7985C23.1241 6.7985 22.1858 7.90131 22.1858 9.57059V14.0544H20.5203V7.43854C20.5203 6.99226 20.5046 6.179 20.4541 5.62516L22.0284 5.62449Z" fill="#F6B220"/>
<path fill-rule="evenodd" clip-rule="evenodd" d="M64.5061 7.69827C64.2797 7.37607 63.977 7.11417 63.6246 6.93568C63.2723 6.75718 62.8811 6.66757 62.4857 6.67475C61.696 6.67475 60.8761 6.96918 60.8761 7.75079C60.8761 8.44302 61.5352 8.70192 62.8537 8.97969C64.5054 9.32513 65.7719 9.96802 65.7719 11.4062C65.7719 13.3471 64.0648 14.0547 62.3056 14.0547C60.9841 14.0547 59.6261 13.5721 58.7998 12.5839L60.0307 11.5944C60.3009 11.9501 60.6505 12.2385 61.0521 12.4369C61.4536 12.6353 61.8961 12.7383 62.3446 12.7377C63.2 12.7377 64.0648 12.4433 64.0648 11.5461C64.0648 10.7798 63.2751 10.5039 61.7897 10.1741C60.6376 9.91651 59.2568 9.44785 59.2568 7.90483C59.2568 6.13724 60.8926 5.39502 62.5436 5.39502C63.7679 5.39502 65.0734 5.86368 65.6972 6.74546L64.5061 7.69827Z" fill="#F5671A"/>
<path fill-rule="evenodd" clip-rule="evenodd" d="M67.5166 14.0546H69.2593V5.97217H67.5166V14.0546Z" fill="#60D0E4"/>
<path fill-rule="evenodd" clip-rule="evenodd" d="M82.4566 5.62449C82.4879 6.05342 82.5257 6.65777 82.5257 7.01061H82.5794C82.9848 6.10157 84.0993 5.39453 85.305 5.39453C87.4567 5.39453 88.4328 6.94328 88.4328 8.82146V14.0544H86.7712V9.37598C86.7712 8.00888 86.3997 6.7985 84.8611 6.7985C83.5518 6.7985 82.614 7.90131 82.614 9.57059V14.0544H80.9524V7.43854C80.9524 6.99226 80.9333 6.179 80.8799 5.62516L82.4566 5.62449Z" fill="#A3D65B"/>
<path fill-rule="evenodd" clip-rule="evenodd" d="M36.1411 7.07294H32.0465V11.332C32.0465 12.3117 32.4179 12.7089 33.2854 12.7089C33.6008 12.7089 34.0049 12.8499 34.3007 12.7089L34.3204 13.9187C33.8441 14.0028 33.3616 14.0478 32.8779 14.0534C31.2348 14.0544 30.3311 13.1928 30.3311 11.504V3.08594H32.0465V5.74793H36.1411V7.07294Z" fill="#F5671A"/>
<path fill-rule="evenodd" clip-rule="evenodd" d="M38.9271 12.5897H38.9623L41.3162 5.97119H43.1136L38.9813 16.3942C38.4249 17.7996 37.7053 18.6716 36.0332 18.6716C35.6577 18.671 35.2833 18.6291 34.9171 18.5467L35.0802 17.211C35.3521 17.2996 35.6563 17.211 35.9246 17.211C36.8072 17.211 37.1494 16.7124 37.5078 15.8087L38.045 14.4034L34.3984 5.97186H36.2855L38.9271 12.5897Z" fill="#60D0E4"/>
<path fill-rule="evenodd" clip-rule="evenodd" d="M55.484 14.4036C55.4501 13.9748 55.4115 13.3703 55.4115 13.0174H55.3737C54.9518 13.9051 53.8529 14.6315 52.6345 14.6315C50.4777 14.6315 49.5049 13.0854 49.5049 11.2037V5.97217H51.1641V10.6342C51.1641 12.0156 51.5389 13.2277 53.0786 13.2277C54.404 13.2277 55.3234 12.1232 55.3234 10.4538V5.97217H56.9887V12.59C56.9887 13.0331 57.0078 13.8496 57.0583 14.4036H55.484Z" fill="#A3D65B"/>
<path fill-rule="evenodd" clip-rule="evenodd" d="M29.1699 7.12682H30.3319V5.97217H29.1699V7.12682Z" fill="#F5671A"/>
<path fill-rule="evenodd" clip-rule="evenodd" d="M34.9795 18.6728H36.1414L36.0282 16.9409H34.9795V18.6728Z" fill="#60D0E4"/>
<path fill-rule="evenodd" clip-rule="evenodd" d="M33.8184 14.0541H32.6562L32.9782 12.8994H33.8178L33.8184 14.0541Z" fill="#F5671A"/>
<path fill-rule="evenodd" clip-rule="evenodd" d="M75.0651 6.74563C73.4091 6.74563 72.7314 8.1469 72.7314 9.70709C72.7314 11.2673 73.4091 12.6867 75.0651 12.6867C76.7338 12.6867 77.411 11.2669 77.411 9.70709C77.411 8.14724 76.7333 6.74563 75.0651 6.74563ZM75.0651 14.0544C72.6869 14.0544 71.0029 12.2383 71.0029 9.70709C71.0029 7.17877 72.687 5.39502 75.0651 5.39502C77.4432 5.39502 79.1366 7.17944 79.1366 9.70709C79.1366 12.2384 77.4424 14.0544 75.0651 14.0544Z" fill="#F6B220"/>
<path fill-rule="evenodd" clip-rule="evenodd" d="M18.7116 2.22225C18.7122 1.93685 18.6275 1.6577 18.4684 1.42009C18.3093 1.18248 18.0828 0.997085 17.8177 0.887337C17.5525 0.777589 17.2606 0.748419 16.9787 0.803515C16.6969 0.85861 16.4378 0.995498 16.2343 1.19687C16.0307 1.39824 15.8919 1.65506 15.8352 1.93485C15.7785 2.21464 15.8066 2.50485 15.9159 2.76877C16.0252 3.0327 16.2109 3.2585 16.4493 3.41762C16.6878 3.57675 16.9683 3.66205 17.2556 3.66275C17.6405 3.66227 18.0096 3.51054 18.2824 3.24068C18.5552 2.97082 18.7095 2.60472 18.7116 2.22225Z" fill="#A3D65B"/>
<path fill-rule="evenodd" clip-rule="evenodd" d="M69.8405 2.22226C69.8411 1.9367 69.7564 1.65741 69.5971 1.41973C69.4378 1.18204 69.2111 0.996644 68.9458 0.886999C68.6804 0.777354 68.3883 0.748389 68.1063 0.803771C67.8244 0.859152 67.5653 0.99639 67.3619 1.19812C67.1585 1.39984 67.0199 1.65699 66.9637 1.93702C66.9074 2.21704 66.936 2.50736 67.0459 2.77122C67.1557 3.03509 67.3419 3.26065 67.5808 3.41935C67.8197 3.57804 68.1007 3.66276 68.388 3.66276C68.7724 3.66156 69.1408 3.5095 69.4128 3.23969C69.6849 2.96987 69.8386 2.60418 69.8405 2.22226Z" fill="#60D0E4"/>
<path fill-rule="evenodd" clip-rule="evenodd" d="M103.795 7.77442C103.587 7.45601 103.302 7.19494 102.965 7.01543C102.628 6.83592 102.252 6.74377 101.869 6.74754C101.117 6.74754 100.33 7.0413 100.33 7.82829C100.33 8.51951 100.959 8.78498 102.217 9.0614C103.795 9.4102 105.003 10.0526 105.003 11.4963C105.003 13.444 103.374 14.1571 101.695 14.1571C100.434 14.1571 99.1371 13.6689 98.3535 12.6806L99.5202 11.6874C99.7709 12.0379 100.102 12.3244 100.485 12.5233C100.869 12.7223 101.294 12.8281 101.727 12.8321C102.553 12.8321 103.374 12.54 103.374 11.6352C103.374 10.8685 102.622 10.5936 101.206 10.2591C100.102 10.0031 98.7932 9.53343 98.7932 7.98149C98.7932 6.20952 100.349 5.46191 101.92 5.46191C103.093 5.46191 104.339 5.93327 104.931 6.8174L103.795 7.77442Z" fill="#60D0E4"/>
<path fill-rule="evenodd" clip-rule="evenodd" d="M111.731 7.02499H109.527V11.3212C109.527 12.3123 109.875 12.7144 110.697 12.7144C111.03 12.7123 111.358 12.6406 111.661 12.504L111.712 13.8455C111.261 13.9963 110.788 14.0721 110.312 14.0701C108.756 14.0701 107.899 13.1999 107.899 11.4956V7.02499H106.302V5.68651H107.898V3.3208H109.527V5.68651H111.731V7.02499Z" fill="#60D0E4"/>
<path fill-rule="evenodd" clip-rule="evenodd" d="M119.404 13.9272C119.372 13.5139 119.338 12.9202 119.338 12.5762H119.3C118.882 13.4434 117.795 14.1563 116.59 14.1563C114.453 14.1563 113.491 12.6412 113.491 10.7996V5.68652H115.135V10.2452C115.135 11.5992 115.501 12.7836 117.026 12.7836C118.338 12.7836 119.245 11.7014 119.245 10.0693V5.68652H120.892V12.1569C120.892 12.5904 120.911 13.39 120.962 13.9272H119.404Z" fill="#60D0E4"/>
<path fill-rule="evenodd" clip-rule="evenodd" d="M127.667 12.7835C129.342 12.7835 130.465 11.3902 130.465 9.81011C130.465 8.22669 129.343 6.8175 127.667 6.8175C125.864 6.8175 124.919 8.24234 124.919 9.79125C124.919 11.3402 125.864 12.7835 127.667 12.7835ZM127.385 14.1564C124.83 14.1564 123.202 12.2086 123.202 9.79109C123.202 7.35636 124.881 5.46184 127.366 5.46184C127.941 5.45385 128.509 5.58222 129.024 5.8363C129.539 6.09038 129.985 6.46283 130.326 6.92271H130.36V0.785645H132.003V13.9272H130.414V12.625H130.377C129.747 13.6182 128.555 14.1569 127.385 14.1569" fill="#60D0E4"/>
<path fill-rule="evenodd" clip-rule="evenodd" d="M134.864 13.9268H136.507V5.68615H134.864V13.9268ZM135.685 3.75543C135.402 3.75968 135.129 3.65258 134.926 3.45749C134.722 3.2624 134.604 2.99516 134.598 2.71407C134.605 2.43047 134.723 2.16086 134.928 1.96277C135.132 1.76468 135.406 1.65381 135.692 1.65381C135.977 1.65381 136.251 1.76468 136.456 1.96277C136.66 2.16086 136.779 2.43047 136.786 2.71407C136.782 2.85431 136.751 2.99255 136.694 3.12086C136.637 3.24916 136.555 3.36501 136.453 3.46177C136.351 3.55852 136.23 3.63426 136.099 3.68466C135.967 3.73505 135.827 3.7591 135.685 3.75543Z" fill="#60D0E4"/>
<path fill-rule="evenodd" clip-rule="evenodd" d="M143.238 6.8174C141.471 6.8174 140.472 8.22659 140.472 9.79116C140.472 11.3557 141.471 12.7834 143.238 12.7834C145.022 12.7834 145.998 11.3572 145.998 9.79116C145.998 8.22508 145.022 6.8174 143.238 6.8174ZM143.238 14.1571C140.699 14.1571 138.771 12.3303 138.771 9.79183C138.771 7.25341 140.7 5.46191 143.238 5.46191C145.774 5.46191 147.715 7.25105 147.715 9.79116C147.715 12.3313 145.775 14.1564 143.238 14.1564" fill="#60D0E4"/>
<path fill-rule="evenodd" clip-rule="evenodd" d="M154.493 7.77442C154.285 7.45608 153.999 7.19506 153.662 7.01556C153.326 6.83605 152.949 6.74387 152.567 6.74754C151.814 6.74754 151.027 7.0413 151.027 7.82829C151.027 8.51951 151.659 8.78498 152.918 9.0614C154.493 9.4102 155.7 10.0526 155.7 11.4963C155.7 13.444 154.072 14.1571 152.393 14.1571C151.131 14.1571 149.838 13.6689 149.051 12.6806L150.224 11.6874C150.473 12.0383 150.802 12.3252 151.185 12.5243C151.567 12.7233 151.992 12.8289 152.424 12.8321C153.25 12.8321 154.072 12.54 154.072 11.6352C154.072 10.8685 153.316 10.5936 151.903 10.2591C150.799 10.0031 149.484 9.53343 149.484 7.98149C149.484 6.20952 151.043 5.46191 152.621 5.46191C153.79 5.46191 155.037 5.93327 155.628 6.8174L154.493 7.77442Z" fill="#60D0E4"/>
<path fill-rule="evenodd" clip-rule="evenodd" d="M93.6622 19.827C93.3418 19.827 93.0811 19.6227 93.0811 19.3755V0.652395C93.0811 0.405101 93.3416 0.199219 93.6622 0.199219C93.9828 0.199219 94.2433 0.405101 94.2433 0.652395V19.3755C94.2433 19.6225 93.9828 19.827 93.6622 19.827Z" fill="#ECE4E4"/>
</g>
<defs>
<clipPath id="clip0_6031:491">
<rect width="155" height="19.6278" fill="white" transform="translate(0.700195 0.200195)"/>
</clipPath>
</defs>
</svg>
