<svg width="53" height="30" viewBox="0 0 53 30" fill="none" xmlns="http://www.w3.org/2000/svg">
<g clip-path="url(#clip0_6554_124462)">
<path d="M53 0.09375H0V29.9062H53V0.09375Z" fill="#B22234"/>
<path d="M0 3.5332H53H0ZM53 8.12102H0H53ZM0 12.7061H53H0ZM53 17.2939H0H53ZM0 21.8789H53H0ZM53 26.4668H0Z" fill="black"/>
<path d="M53 27.6124H0V25.3185H53V27.6124ZM53 23.0273H0V20.7334H53V23.0273ZM53 18.4395H0V16.1456H53V18.4395ZM53 13.8545H0V11.5606H53V13.8545ZM53 9.26665H0V6.97275H53V9.26665ZM53 4.6816H0V2.3877H53V4.6816Z" fill="white"/>
<path d="M22.6575 0.09375H0V16.1456H22.6575V0.09375Z" fill="#3C3B6E"/>
<path d="M1.89149 0.781006L2.43253 2.44002L1.01367 1.4159H2.7555L1.34768 2.44278L1.89149 0.781006Z" fill="white"/>
<path d="M1.89068 3.99146L2.43172 5.65046L1.01562 4.62359H2.75745L1.34411 5.65046L1.89068 3.99146Z" fill="white"/>
<path d="M1.89133 7.20166L2.43238 8.86067L1.01904 7.8338H2.76087L1.34753 8.86067L1.89133 7.20166Z" fill="white"/>
<path d="M1.89133 10.4121L2.43238 12.0739L1.01904 11.047H2.76087L1.34753 12.0739L1.89133 10.4121Z" fill="white"/>
<path d="M1.89133 13.6252L2.43238 15.2843L1.01904 14.2574H2.76087L1.34753 15.2843L1.89133 13.6252Z" fill="white"/>
<path d="M3.77334 2.3877L4.31438 4.04671L2.90381 3.01983H4.64563L3.23782 4.04671L3.77334 2.3877Z" fill="white"/>
<path d="M3.77415 5.5979L4.31519 7.25691L2.90186 6.23004H4.64368L3.23034 7.25691L3.77415 5.5979Z" fill="white"/>
<path d="M3.77415 8.80859L4.31519 10.4676L2.90186 9.44073H4.64368L3.23034 10.4676L3.77415 8.80859Z" fill="white"/>
<path d="M3.77415 12.0188L4.31519 13.6778L2.90186 12.6509H4.64368L3.23034 13.6778L3.77415 12.0188Z" fill="white"/>
<path d="M5.66477 0.781006L6.20581 2.44002L4.79248 1.41314H6.5343L5.12097 2.44002L5.66477 0.781006Z" fill="white"/>
<path d="M5.66477 3.99146L6.20581 5.65046L4.79248 4.62359H6.5343L5.12097 5.65046L5.66477 3.99146Z" fill="white"/>
<path d="M5.66477 7.20166L6.20581 8.86067L4.79248 7.8338H6.5343L5.12097 8.86067L5.66477 7.20166Z" fill="white"/>
<path d="M5.66477 10.4121L6.20581 12.0711L4.79248 11.0442H6.5343L5.12373 12.0739L5.66477 10.4121Z" fill="white"/>
<path d="M5.66477 13.6252L6.20581 15.2843L4.79248 14.2574H6.5343L5.12097 15.2843L5.66477 13.6252Z" fill="white"/>
<path d="M7.55491 2.3877L8.09595 4.04671L6.68262 3.01983H8.42444L7.01111 4.04671L7.55491 2.3877Z" fill="white"/>
<path d="M7.55491 5.5979L8.09595 7.25691L6.68262 6.23004H8.42444L7.01111 7.25691L7.55491 5.5979Z" fill="white"/>
<path d="M7.55491 8.80859L8.09595 10.4676L6.68262 9.44073H8.42444L7.01111 10.4676L7.55491 8.80859Z" fill="white"/>
<path d="M7.55491 12.0188L8.09595 13.6778L6.68262 12.6509H8.42444L7.01111 13.6778L7.55491 12.0188Z" fill="white"/>
<path d="M9.43821 0.781006L9.97925 2.44002L8.56592 1.41314H10.3077L8.89441 2.44002L9.43821 0.781006Z" fill="white"/>
<path d="M9.43821 3.99146L9.97925 5.65046L8.56592 4.62359H10.3077L8.89441 5.65046L9.43821 3.99146Z" fill="white"/>
<path d="M9.43821 7.20166L9.97925 8.86067L8.56592 7.8338H10.3077L8.89441 8.86067L9.43821 7.20166Z" fill="white"/>
<path d="M9.43821 10.4121L9.97925 12.0711L8.56592 11.0442H10.3077L8.89717 12.0739L9.43821 10.4121Z" fill="white"/>
<path d="M9.43821 13.6252L9.97925 15.2843L8.56592 14.2574H10.3077L8.89441 15.2843L9.43821 13.6252Z" fill="white"/>
<path d="M11.3283 2.3877L11.8694 4.04671L10.4561 3.01983H12.2006L10.7873 4.04671L11.3283 2.3877Z" fill="white"/>
<path d="M11.3283 5.5979L11.8694 7.25691L10.4561 6.23004H12.2006L10.7873 7.25691L11.3283 5.5979Z" fill="white"/>
<path d="M11.3283 8.80859L11.8694 10.4676L10.4561 9.44073H12.2006L10.7873 10.4676L11.3283 8.80859Z" fill="white"/>
<path d="M11.3283 12.0188L11.8694 13.6778L10.4561 12.6509H12.2006L10.7873 13.6778L11.3283 12.0188Z" fill="white"/>
<path d="M13.219 0.781006L13.76 2.44002L12.3467 1.41314H14.0885L12.6752 2.44002L13.219 0.781006Z" fill="white"/>
<path d="M13.219 3.99146L13.76 5.65046L12.3467 4.62359H14.0885L12.6752 5.65046L13.219 3.99146Z" fill="white"/>
<path d="M13.219 7.20166L13.76 8.86067L12.3467 7.8338H14.0885L12.6752 8.86067L13.219 7.20166Z" fill="white"/>
<path d="M13.219 10.4121L13.76 12.0711L12.3467 11.0442H14.0885L12.6752 12.0739L13.219 10.4121Z" fill="white"/>
<path d="M13.219 13.6252L13.76 15.2843L12.3467 14.2574H14.0885L12.6752 15.2843L13.219 13.6252Z" fill="white"/>
<path d="M15.1024 2.3877L15.6435 4.04671L14.2329 3.01983H15.9747L14.5614 4.04671L15.1024 2.3877Z" fill="white"/>
<path d="M15.1018 5.5979L15.6428 7.25691L14.2295 6.23004H15.9713L14.558 7.25691L15.1018 5.5979Z" fill="white"/>
<path d="M15.1018 8.80859L15.6428 10.4676L14.2295 9.44073H15.9713L14.558 10.4676L15.1018 8.80859Z" fill="white"/>
<path d="M15.1018 12.0188L15.6428 13.6778L14.2295 12.6509H15.9713L14.558 13.6778L15.1018 12.0188Z" fill="white"/>
<path d="M16.9934 0.781006L17.5344 2.44002L16.1211 1.4159H17.8629L16.4523 2.44278L16.9934 0.781006Z" fill="white"/>
<path d="M16.9934 3.99146L17.5344 5.65047L16.1211 4.62635H17.8629L16.4523 5.65323L16.9934 3.99146Z" fill="white"/>
<path d="M16.9934 7.20166L17.5344 8.86067L16.1211 7.83656H17.8629L16.4523 8.86343L16.9934 7.20166Z" fill="white"/>
<path d="M16.9934 10.4121L17.5344 12.0711L16.1211 11.047H17.8629L16.4523 12.0739L16.9934 10.4121Z" fill="white"/>
<path d="M16.9934 13.6252L17.5344 15.2843L16.1211 14.2574H17.8629L16.4523 15.2843L16.9934 13.6252Z" fill="white"/>
<path d="M18.884 2.3877L19.4251 4.04671L18.0117 3.01983H19.7535L18.3402 4.04671L18.884 2.3877Z" fill="white"/>
<path d="M18.884 5.5979L19.4251 7.25691L18.0117 6.23004H19.7535L18.3402 7.25691L18.884 5.5979Z" fill="white"/>
<path d="M18.884 8.80859L19.4251 10.4676L18.0117 9.44073H19.7535L18.3402 10.4676L18.884 8.80859Z" fill="white"/>
<path d="M18.884 12.0188L19.4251 13.6778L18.0117 12.6509H19.7535L18.3402 13.6778L18.884 12.0188Z" fill="white"/>
<path d="M20.7665 0.781006L21.3103 2.44278L19.897 1.4159H21.6388L20.2255 2.44278L20.7665 0.781006Z" fill="white"/>
<path d="M20.7668 3.99146L21.3079 5.65046L19.8945 4.62359H21.6364L20.223 5.65046L20.7668 3.99146Z" fill="white"/>
<path d="M20.7668 7.20166L21.3079 8.86067L19.8945 7.8338H21.6364L20.223 8.86067L20.7668 7.20166Z" fill="white"/>
<path d="M20.7665 10.4121L21.3103 12.0739L19.897 11.047H21.6388L20.2255 12.0739L20.7665 10.4121Z" fill="white"/>
<path d="M20.7668 13.6252L21.3079 15.2843L19.8945 14.2574H21.6364L20.223 15.2843L20.7668 13.6252Z" fill="white"/>
</g>
<defs>
<clipPath id="clip0_6554_124462">
<path d="M0 5.09375C0 2.33233 2.23858 0.09375 5 0.09375H48C50.7614 0.09375 53 2.33233 53 5.09375V24.9062C53 27.6677 50.7614 29.9062 48 29.9062H5C2.23858 29.9062 0 27.6677 0 24.9063V5.09375Z" fill="white"/>
</clipPath>
</defs>
</svg>
